<?xml version="1.0" encoding="UTF-8"?>
<svg width="1080px" height="1080px" viewBox="0 0 1080 1080" xmlns="http://www.w3.org/2000/svg" xmlns:xlink="http://www.w3.org/1999/xlink" version="1.1">
 <!-- Generated by Pixelmator Pro 1.7.1 -->
 <path id="Path" d="M-13 621 L71 725 31 675 86 630 -20 716" fill="none" stroke="#820e74" stroke-width="12" stroke-opacity="1" stroke-linejoin="round"/>
 <path id="Path-copy-9" d="M981 540 L1065 644 1025 594 1080 549 974 635" fill="none" stroke="#820e74" stroke-width="12" stroke-opacity="1" stroke-linejoin="round"/>
 <path id="Path-copy-2" d="M262 202 L346 306 306 256 361 211 255 297" fill="none" stroke="#820e74" stroke-width="12" stroke-opacity="1" stroke-linejoin="round"/>
 <path id="Path-copy-4" d="M624 693 L708 797 668 747 723 702 617 788" fill="none" stroke="#820e74" stroke-width="12" stroke-opacity="1" stroke-linejoin="round"/>
 <path id="Shape" d="M170.5 554.646 L254.646 470.5 170.5 386.354 86.354 470.5 Z" fill="none" stroke="#820e74" stroke-width="12" stroke-opacity="1" stroke-linejoin="round"/>
 <path id="Shape-copy-3" d="M1111.5 422.646 L1195.646 338.5 1111.5 254.354 1027.354 338.5 Z" fill="none" stroke="#820e74" stroke-width="12" stroke-opacity="1" stroke-linejoin="round"/>
 <path id="Shape-copy" d="M539.5 423.646 L623.646 339.5 539.5 255.354 455.354 339.5 Z" fill="none" stroke="#820e74" stroke-width="12" stroke-opacity="1" stroke-linejoin="round"/>
 <path id="Shape-copy-2" d="M64.5 1079.646 L148.646 995.5 64.5 911.354 -19.646 995.5 Z" fill="none" stroke="#820e74" stroke-width="12" stroke-opacity="1" stroke-linejoin="round"/>
 <path id="Shape-copy-1" d="M514 88 L514 -31 395 -31 395 88 Z" fill="none" stroke="#820e74" stroke-width="12" stroke-opacity="1" stroke-linejoin="round"/>
 <path id="Path-1" d="M62 120 L133 68 168 112 238 57" fill="none" stroke="#820e74" stroke-width="12" stroke-opacity="1" stroke-linejoin="round"/>
 <path id="Path-copy-6" d="M545.402 1080.853 L558.837 993.879 614.698 1000.243 625.305 911.854" fill="none" stroke="#820e74" stroke-width="12" stroke-opacity="1" stroke-linejoin="round"/>
 <path id="Path-copy" d="M670 555 L741 503 776 547 846 492" fill="none" stroke="#820e74" stroke-width="12" stroke-opacity="1" stroke-linejoin="round"/>
 <path id="Path-copy-3" d="M673.147 183.402 L760.121 196.837 753.757 252.698 842.146 263.305" fill="none" stroke="#820e74" stroke-width="12" stroke-opacity="1" stroke-linejoin="round"/>
 <path id="Path-2" d="M0 306 L62 204 124 302.256 0 306 Z" fill="none" stroke="#820e74" stroke-width="12" stroke-opacity="1" stroke-linejoin="round"/>
 <path id="Path-copy-8" d="M892 931 L954 829 1016 927.256 892 931 Z" fill="none" stroke="#820e74" stroke-width="12" stroke-opacity="1" stroke-linejoin="round"/>
 <path id="Path-copy-1" d="M331 693 L393 591 455 689.256 331 693 Z" fill="none" stroke="#820e74" stroke-width="12" stroke-opacity="1" stroke-linejoin="round"/>
 <path id="Path-copy-7" d="M914 46 L1016 108 917.744 170 914 46 Z" fill="none" stroke="#820e74" stroke-width="12" stroke-opacity="1" stroke-linejoin="round"/>
 <path id="Path-copy-5" d="M220.097 872.222 L336.062 843.938 310.426 957.256 220.097 872.222 Z" fill="none" stroke="#820e74" stroke-width="12" stroke-opacity="1" stroke-linejoin="round"/>
</svg>
