<?xml version="1.0" encoding="UTF-8"?>
<svg width="2400px" height="3000px" viewBox="0 0 2400 3000" xmlns="http://www.w3.org/2000/svg" xmlns:xlink="http://www.w3.org/1999/xlink" version="1.1">
 <!-- Generated by Pixelmator Pro 1.7.1 -->
 <path id="Shape" d="M-1078.517 1499.482 L1468.482 -1047.517 1352.517 -1163.482 -1194.482 1383.517 Z" fill="#f5a60b" fill-opacity="1" stroke="none"/>
 <path id="Shape-copy" d="M-795.517 1640.482 L1751.482 -906.517 1635.517 -1022.482 -911.482 1524.517 Z" fill="#f5a60b" fill-opacity="1" stroke="none"/>
 <path id="Shape-copy-1" d="M-508.517 1800.482 L2038.482 -746.517 1922.517 -862.482 -624.482 1684.517 Z" fill="#f5a60b" fill-opacity="1" stroke="none"/>
 <path id="Shape-copy-2" d="M-231.517 1971.482 L2315.482 -575.517 2199.517 -691.482 -347.482 1855.517 Z" fill="#f5a60b" fill-opacity="1" stroke="none"/>
 <path id="Shape-copy-3" d="M-15.517 2211.482 L2531.482 -335.517 2415.517 -451.482 -131.482 2095.517 Z" fill="#f5a60b" fill-opacity="1" stroke="none"/>
 <path id="Shape-copy-4" d="M-14.517 2663.482 L2532.482 116.483 2416.517 0.518 -130.482 2547.517 Z" fill="#f5a60b" fill-opacity="1" stroke="none"/>
 <path id="Shape-copy-5" d="M-188.5 3266.5 L2831 247 2720.017 136.017 -299.483 3155.517 Z" fill="#f5a60b" fill-opacity="1" stroke="none"/>
 <path id="Shape-copy-6" d="M13.5 3536.5 L3033 517 2922.017 406.017 -97.483 3425.517 Z" fill="#f5a60b" fill-opacity="1" stroke="none"/>
 <path id="Shape-copy-7" d="M248.5 3770.5 L3268 751 3157.017 640.017 137.517 3659.517 Z" fill="#f5a60b" fill-opacity="1" stroke="none"/>
 <path id="Shape-copy-8" d="M531.5 3911.5 L3551 892 3440.017 781.017 420.517 3800.517 Z" fill="#f5a60b" fill-opacity="1" stroke="none"/>
 <path id="Shape-copy-9" d="M818.5 4068.5 L3838 1049 3727.017 938.017 707.517 3957.517 Z" fill="#f5a60b" fill-opacity="1" stroke="none"/>
 <path id="Shape-copy-10" d="M1076.5 4228.5 L4096 1209 3985.017 1098.017 965.517 4117.517 Z" fill="#f5a60b" fill-opacity="1" stroke="none"/>
</svg>
